<?xml version="1.0" encoding="utf-8"?>
<!-- Generator: Adobe Illustrator 25.0.1, SVG Export Plug-In . SVG Version: 6.00 Build 0)  -->
<svg version="1.1" id="Layer_1" xmlns="http://www.w3.org/2000/svg" xmlns:xlink="http://www.w3.org/1999/xlink" x="0px" y="0px"
	 viewBox="0 0 128 128" style="enable-background:new 0 0 128 128;" xml:space="preserve">
<style type="text/css">
	.st0{fill:#FFFFFF;}
</style>
<path class="st0" d="M88.6,1.9h-8.8c-6.6,0-12,5.3-12,11.9c0,6.6,5.3,12,11.9,12c0,0,0,0,0,0h8.8c6.6,0,12-5.4,11.9-12
	C100.5,7.2,95.2,1.9,88.6,1.9z M88.6,21.7h-8.8c-4.3,0-7.9-3.5-7.9-7.9S75.4,6,79.8,6h8.8c4.3,0,7.9,3.5,7.9,7.9
	S92.9,21.7,88.6,21.7z"/>
<path class="st0" d="M102,99.2v-8.6c0-0.9-0.7-1.6-1.6-1.6H61.8v-7c0-0.9-0.7-1.6-1.6-1.6c-0.9,0-1.6,0.7-1.6,1.6v7H19.8
	c-0.9,0-1.6,0.7-1.6,1.6v8.6c0,0.9,0.7,1.6,1.6,1.6c0.9,0,1.6-0.7,1.6-1.6v-7h37.2v7c0,0.9,0.7,1.6,1.6,1.6c0.9,0,1.6-0.7,1.6-1.6
	v-7h37.1v7c0,0.9,0.7,1.6,1.6,1.6C101.3,100.8,102,100.1,102,99.2z"/>
<path class="st0" d="M108.2,39.2H85.9V32c0-0.9-0.7-1.7-1.7-1.7S82.6,31,82.6,32c0,0,0,0,0,0v7.2H60.1c-0.9,0-1.7,0.7-1.7,1.7v8.9
	c0,0.9,0.7,1.7,1.7,1.7c0.9,0,1.7-0.7,1.7-1.7v-7.2h44.8v7.2c0,0.9,0.7,1.7,1.7,1.7c0.9,0,1.7-0.7,1.7-1.7c0,0,0,0,0,0v-8.9
	C109.9,39.9,109.1,39.2,108.2,39.2z"/>
<path class="st0" d="M74,66.2C74,60.6,69.5,56,63.9,56c0,0,0,0,0,0h-7.5c-5.6,0-10.1,4.5-10.1,10.1c0,5.6,4.5,10.1,10.1,10.1
	c0,0,0,0,0,0h7.5C69.5,76.3,74,71.8,74,66.2z"/>
<path class="st0" d="M111.9,56h-7.5c-5.6,0-10.1,4.5-10.1,10.1c0,5.6,4.5,10.1,10.1,10.1c0,0,0,0,0,0h7.5c5.6,0,10.1-4.5,10.1-10.1
	S117.5,56,111.9,56z"/>
<path class="st0" d="M23.6,105.9h-7.5C10.5,105.9,6,110.4,6,116c0,5.6,4.5,10.1,10.1,10.1h7.5c5.6,0,10.1-4.5,10.1-10.1
	C33.7,110.4,29.2,105.9,23.6,105.9L23.6,105.9z"/>
<path class="st0" d="M63.9,105.9h-7.5c-5.6,0-10.1,4.5-10.1,10.1c0,5.6,4.5,10.1,10.1,10.1h7.5c5.6,0,10.1-4.5,10.1-10.1
	C74,110.4,69.5,105.9,63.9,105.9z"/>
<path class="st0" d="M104.3,105.9h-7.5c-5.6,0-10.1,4.5-10.1,10.1c0,5.6,4.5,10.1,10.1,10.1h7.5c5.6,0,10.1-4.5,10.1-10.1
	C114.4,110.4,109.9,105.9,104.3,105.9z"/>
</svg>
