<?xml version="1.0" encoding="utf-8"?>
<!-- Generator: Adobe Illustrator 25.0.1, SVG Export Plug-In . SVG Version: 6.00 Build 0)  -->
<svg version="1.1" id="Layer_1" xmlns="http://www.w3.org/2000/svg" xmlns:xlink="http://www.w3.org/1999/xlink" x="0px" y="0px"
	 viewBox="0 0 100.4 100.4" style="enable-background:new 0 0 100.4 100.4;" xml:space="preserve">
<style type="text/css">
	.st0{fill:#FFFFFF;}
</style>
<g>
	<path class="st0" d="M41.8,45.4c-7.7,0-13.9,6.3-13.9,13.9s6.3,13.9,13.9,13.9S55.7,67,55.7,59.3S49.5,45.4,41.8,45.4z M41.8,70.3
		c-6,0-10.9-4.9-10.9-10.9s4.9-10.9,10.9-10.9c6,0,10.9,4.9,10.9,10.9S47.8,70.3,41.8,70.3z"/>
	<path class="st0" d="M12.4,45.4c-0.8,0-1.5,0.7-1.5,1.5v24.9c0,0.8,0.7,1.5,1.5,1.5s1.5-0.7,1.5-1.5V46.9
		C13.9,46.1,13.2,45.4,12.4,45.4z"/>
	<path class="st0" d="M70.6,45.4c-0.8,0-1.5,0.7-1.5,1.5v24.9c0,0.8,0.7,1.5,1.5,1.5s1.5-0.7,1.5-1.5V46.9
		C72.1,46.1,71.5,45.4,70.6,45.4z"/>
	<path class="st0" d="M95.3,19.1H21.9c-0.8,0-1.5,0.7-1.5,1.5v7.4h-6.7c-0.8,0-1.5,0.7-1.5,1.5v8.2H4.7c-0.8,0-1.5,0.7-1.5,1.5v40
		c0,0.8,0.7,1.5,1.5,1.5h73.4c0.8,0,1.5-0.7,1.5-1.5v-8.2h7.4c0.8,0,1.5-0.7,1.5-1.5v-7.4h6.7c0.8,0,1.5-0.7,1.5-1.5v-40
		C96.8,19.8,96.1,19.1,95.3,19.1z M6.2,77.9v-37h70.4v28.8c0,0,0,0,0,0s0,0,0,0v8.2H6.2z M85.6,68.1h-5.9V39.3
		c0-0.8-0.7-1.5-1.5-1.5h-63v-6.7h70.4V68.1z M93.8,59.2h-5.2V29.6c0-0.8-0.7-1.5-1.5-1.5H23.4v-5.9h70.4V59.2z"/>
</g>
</svg>
