<?xml version="1.0" encoding="utf-8"?>
<!-- Generator: Adobe Illustrator 25.0.1, SVG Export Plug-In . SVG Version: 6.00 Build 0)  -->
<svg version="1.1" id="Layer_1" xmlns="http://www.w3.org/2000/svg" xmlns:xlink="http://www.w3.org/1999/xlink" x="0px" y="0px"
	 viewBox="0 0 92 92" style="enable-background:new 0 0 92 92;" xml:space="preserve">
<style type="text/css">
	.st0{fill:#FFFFFF;}
</style>
<path id="XMLID_1489_" class="st0" d="M60.9,25.5c3.2,3.6,4.7,8.5,4,13.7c-1.2,9.6-8.2,13-14.4,13c-0.3,0-0.5,0-0.5,0v2.4
	c0,2.2-1.8,4-4,4s-4-1.8-4-4v-3.2c0-3.3,1.4-7.2,8.5-7.2c3.9,0,5.9-2,6.4-6c0.2-1.3,0.3-4.8-2.1-7.4c-1.9-2.1-5-3.2-9.2-3.2
	c-9,0-9.3,5.9-9.3,6.5c0,2.2-1.8,4-4,4s-4-1.8-4-4c0-4,3.1-14.5,17.3-14.5C53.9,19.6,58.5,22.8,60.9,25.5z M45.7,62
	c-1.3,0-2.6,0.5-3.5,1.5c-0.9,0.9-1.5,2.2-1.5,3.5s0.5,2.6,1.5,3.5c0.9,0.9,2.2,1.5,3.5,1.5s2.6-0.5,3.5-1.5
	c0.9-0.9,1.5-2.2,1.5-3.5s-0.5-2.6-1.5-3.5C48.3,62.6,47.1,62,45.7,62z M92,46c0,25.4-20.6,46-46,46S0,71.4,0,46S20.6,0,46,0
	S92,20.6,92,46z M84,46C84,25,67,8,46,8S8,25,8,46s17,38,38,38S84,67,84,46z"/>
</svg>
